<?xml version="1.0" encoding="UTF-8" standalone="no"?>
<svg
   xmlns:dc="http://purl.org/dc/elements/1.1/"
   xmlns:cc="http://creativecommons.org/ns#"
   xmlns:rdf="http://www.w3.org/1999/02/22-rdf-syntax-ns#"
   xmlns:svg="http://www.w3.org/2000/svg"
   xmlns="http://www.w3.org/2000/svg"
   version="1.1"
   id="svg27848"
   viewBox="0 0 128 128"
   height="128"
   width="128">
  <defs
     id="defs27850" />
  <metadata
     id="metadata27853">
    <rdf:RDF>
      <cc:Work
         rdf:about="">
        <dc:format>image/svg+xml</dc:format>
        <dc:type
           rdf:resource="http://purl.org/dc/dcmitype/StillImage" />
        <dc:title></dc:title>
      </cc:Work>
    </rdf:RDF>
  </metadata>
  <g
     transform="translate(0,-924.36216)"
     id="layer1">
    <g
       id="g27186"
       transform="translate(-764.79016,-7731.4796)"
       style="fill:#ffffff">
      <path
         id="circle27188"
         d="m 891.98616,8719.8418 a 63.196003,63.196003 0 0 1 -63.196,63.196 63.196003,63.196003 0 0 1 -63.196,-63.196 63.196003,63.196003 0 0 1 63.196,-63.196 63.196003,63.196003 0 0 1 63.196,63.196 z"
         style="color:#000000;clip-rule:nonzero;display:inline;overflow:visible;visibility:visible;opacity:1;isolation:auto;mix-blend-mode:normal;color-interpolation:sRGB;color-interpolation-filters:linearRGB;solid-color:#000000;solid-opacity:1;fill:#ffffff;fill-opacity:0.27044025;fill-rule:nonzero;stroke:#ffffff;stroke-width:1.60800004;stroke-linecap:butt;stroke-linejoin:miter;stroke-miterlimit:4;stroke-dasharray:none;stroke-dashoffset:0;stroke-opacity:1;color-rendering:auto;image-rendering:auto;shape-rendering:auto;text-rendering:auto;enable-background:accumulate" />
      <path
         id="rect27190"
         d="m 808.90564,8686.8525 1.87801,0 c 2.77,0 5,2.23 5,5 l 0,9.8755 c 0,2.77 -2.23,5 -5,5 l -1.87801,0 c -2.77,0 -5,-2.23 -5,-5 l 0,-9.8755 c 0,-2.77 2.23,-5 5,-5 z"
         style="opacity:1;fill:#ffffff;fill-opacity:1;stroke:none;stroke-width:1;stroke-linecap:round;stroke-linejoin:round;stroke-miterlimit:4;stroke-dasharray:none;stroke-dashoffset:0;stroke-opacity:1" />
      <path
         id="rect27192"
         d="m 846.79663,8686.8525 1.87801,0 c 2.77,0 5,2.23 5,5 l 0,9.8755 c 0,2.77 -2.23,5 -5,5 l -1.87801,0 c -2.77,0 -5,-2.23 -5,-5 l 0,-9.8755 c 0,-2.77 2.23,-5 5,-5 z"
         style="opacity:1;fill:#ffffff;fill-opacity:1;stroke:none;stroke-width:1;stroke-linecap:round;stroke-linejoin:round;stroke-miterlimit:4;stroke-dasharray:none;stroke-dashoffset:0;stroke-opacity:1" />
      <path
         id="rect27194"
         d="m 827.85114,8720.9551 1.87801,0 c 2.77,0 5,2.23 5,5 l 0,9.8755 c 0,2.77 -2.23,5 -5,5 l -1.87801,0 c -2.77,0 -5,-2.23 -5,-5 l 0,-9.8755 c 0,-2.77 2.23,-5 5,-5 z"
         style="opacity:1;fill:#ffffff;fill-opacity:1;stroke:none;stroke-width:1;stroke-linecap:round;stroke-linejoin:round;stroke-miterlimit:4;stroke-dasharray:none;stroke-dashoffset:0;stroke-opacity:1" />
    </g>
  </g>
</svg>
